#!OML:ASF F:\VICON\USERDATA\INSTALL\rory3\rory3.ASF
:FULLY-SPECIFIED
:DEGREES
166
root 0.122654 18.3759 13.8064 -169.772 -1.66843 177.804
lowerback 7.17663 1.03206 -2.35966
upperback 1.81976 1.1235 1.34343
thorax -2.21729 0.522657 2.61334
lowerneck -15.2652 3.29335 -9.60111
upperneck 41.7161 2.56365 1.05537
head 17.9193 -1.99076 2.16559
rclavicle 1.92821e-014 1.90833e-014
rhumerus -26.8333 -6.40941 -77.9743
rradius 35.9601
rwrist 17.2742
rhand -20.7115 2.74173
rfingers 7.12502
rthumb 5.65292 -27.1629
lclavicle 1.92821e-014 1.90833e-014
lhumerus -30.9685 8.34076 80.6271
lradius 43.5895
lwrist -2.73606
lhand -10.7368 25.2712
lfingers 7.12502
lthumb 15.274 54.6872
rfemur -5.85391 0.754971 23.8995
rtibia 1.59028e-014
rfoot -4.90905 -9.70087
rtoes 18.699
lfemur -68.1724 5.72312 -26.005
ltibia 86.3466
lfoot -21.2578 -11.6152
ltoes -29.628
167
root 0.116984 18.3742 13.7911 -169.804 -1.62423 177.646
lowerback 7.27909 0.97254 -2.54202
upperback 1.78735 1.03001 1.37398
thorax -2.30553 0.478823 2.75519
lowerneck -15.062 3.41616 -9.7155
upperneck 41.6995 2.73331 1.05199
head 17.8386 -1.95041 2.20883
rclavicle -9.14409e-015 3.18055e-015
rhumerus -26.8128 -6.00314 -78.0117
rradius 36.1663
rwrist 17.1614
rhand -20.6116 2.92627
rfingers 7.12502
rthumb 5.74931 -26.9757
lclavicle -9.14409e-015 3.18055e-015
lhumerus -31.0223 8.79438 80.5453
lradius 43.3754
lwrist -2.90255
lhand -10.734 25.491
lfingers 7.12502
lthumb 15.2767 54.9069
rfemur -5.77486 0.750876 23.7324
rtibia 4.77083e-015
rfoot -4.87562 -9.76161
rtoes 18.19
lfemur -68.422 5.45323 -26.1264
ltibia 85.9965
lfoot -21.2247 -12.1173
ltoes -29.121
168
root 0.111225 18.3703 13.7716 -169.792 -1.60153 177.632
lowerback 7.26659 0.976333 -2.53305
upperback 1.7727 1.03732 1.3993
thorax -2.3145 0.483061 2.77571
lowerneck -14.8507 3.4388 -9.78006
upperneck 41.6634 2.73396 1.0517
head 17.7597 -1.96355 2.21535
rclavicle -5.96354e-016 1.19271e-014
rhumerus -26.7739 -5.88806 -77.991
rradius 36.2696
rwrist 17.1716
rhand -20.5022 2.94163
rfingers 7.12502
rthumb 5.85502 -26.9575
lclavicle -5.96354e-016 1.19271e-014
lhumerus -31.0664 9.01008 80.5086
lradius 43.1956
lwrist -3.08965
lhand -10.7904 25.4696
lfingers 7.12502
lthumb 15.2224 54.8896
rfemur -5.75232 0.755014 23.7143
rtibia -9.54166e-015
rfoot -4.88985 -9.7805
rtoes 17.8904
lfemur -68.7178 5.18026 -26.0798
ltibia 85.6187
lfoot -20.8028 -12.8402
ltoes -27.606
169
root 0.105162 18.3624 13.7477 -169.771 -1.49776 177.759
lowerback 7.15726 1.0213 -2.3999
upperback 1.81299 1.10803 1.42151
thorax -2.21481 0.514988 2.7185
lowerneck -14.8125 3.43607 -9.72775
upperneck 41.6873 2.68946 1.06057
head 17.7671 -1.97505 2.20141
rclavicle 7.95139e-016 -1.03368e-014
rhumerus -26.6423 -5.82988 -78.0091
rradius 36.2743
rwrist 17.2331
rhand -20.5952 3.13223
rfingers 7.12502
rthumb 5.7652 -26.7693
lclavicle 7.95139e-016 -1.03368e-014
lhumerus -31.1445 9.0582 80.445
lradius 43.1651
lwrist -3.26376
lhand -10.8859 25.4916
lfingers 7.12502
lthumb 15.1304 54.9186
rfemur -5.74497 0.8663 23.8326
rtibia -5.56597e-015
rfoot -4.88159 -9.79382
rtoes 17.4624
lfemur -68.9953 4.98415 -25.8872
ltibia 85.2473
lfoot -21.1011 -12.9922
ltoes -27.967
170
root 0.102428 18.3558 13.725 -169.765 -1.35183 177.89
lowerback 7.13941 1.06572 -2.31912
upperback 1.83247 1.17222 1.44581
thorax -2.1879 0.545294 2.69258
lowerneck -14.8235 3.46885 -9.63561
upperneck 41.732 2.70608 1.04565
head 17.7961 -1.96094 2.18085
rclavicle 0 -1.59028e-015
rhumerus -26.5067 -5.71668 -78.0721
rradius 36.3193
rwrist 17.1824
rhand -20.5617 3.04225
rfingers 7.12502
rthumb 5.79754 -26.8584
lclavicle 0 -1.59028e-015
lhumerus -31.2453 9.17726 80.3227
lradius 43.074
lwrist -3.51167
lhand -10.8602 25.4078
lfingers 7.12502
lthumb 15.1552 54.8328
rfemur -5.70911 1.02026 23.9576
rtibia -7.15625e-015
rfoot -4.88378 -9.78167
rtoes 16.7735
lfemur -69.1958 4.88344 -25.6955
ltibia 84.8505
lfoot -21.4042 -13.002
ltoes -29.5906
